<svg xmlns="http://www.w3.org/2000/svg" width="16" height="16" fill="none"><path stroke="#444" stroke-linecap="round" stroke-linejoin="round" stroke-miterlimit="10" d="M10.084 1.841 14.143 5.9M8.492 2.724a5.462 5.462 0 0 0-6.024 1.155A5.452 5.452 0 0 0 1.63 4.97l2.34 2.34M13.266 7.473a5.46 5.46 0 0 1-1.144 6.059 5.472 5.472 0 0 1-1.092.839l-2.35-2.35"/><path stroke="#444" stroke-linecap="round" stroke-linejoin="round" stroke-miterlimit="10" d="M6.812 13.049 2.95 9.188S6.249.983 15.5.5c-.523 9.211-8.688 12.549-8.688 12.549Z"/><mask id="a" fill="#fff"><path d="M3.914 14.914C3.133 15.695 0 16 0 16s.305-3.133 1.086-3.914a2 2 0 1 1 2.828 2.828Z"/></mask><path fill="#3B3B3B" d="m0 16-.995-.097-.118 1.21 1.21-.118L0 16Zm3.207-1.793c.001-.002-.036.033-.145.09a3.117 3.117 0 0 1-.413.17 9.35 9.35 0 0 1-1.179.302 18.323 18.323 0 0 1-1.539.233l-.022.002h-.006L0 16l.097.995h.004a.555.555 0 0 0 .039-.004l.109-.012a20.151 20.151 0 0 0 1.609-.248c.462-.091.976-.213 1.44-.372.426-.146.956-.371 1.323-.738l-1.414-1.414ZM0 16l.995.097v-.006a7.712 7.712 0 0 1 .013-.115l.043-.346c.04-.292.098-.686.18-1.1.083-.419.184-.835.302-1.178.058-.172.116-.31.17-.414.057-.11.092-.146.09-.145L.38 11.38c-.367.367-.592.897-.738 1.324-.159.463-.28.977-.372 1.44a20.28 20.28 0 0 0-.263 1.747v.01l-.001.002L0 16Zm1.793-3.207a1 1 0 0 1 1.414 0L4.62 11.38a3 3 0 0 0-4.242 0l1.414 1.414Zm1.414 0a1 1 0 0 1 0 1.414L4.62 15.62a3 3 0 0 0 0-4.242l-1.414 1.414Z" mask="url(#a)"/><path fill="#444" d="M9 8a1 1 0 1 0 0-2 1 1 0 0 0 0 2Z"/></svg>